<svg width="32" height="16" viewBox="0 0 19 7" fill="none" xmlns="http://www.w3.org/2000/svg">
<path d="M3.888 5.76C3.92 5.888 3.936 6.048 3.936 6.24C3.936 6.424 3.92 6.584 3.888 6.72H2.208C2.176 6.584 2.16 6.424 2.16 6.24C2.16 6.048 2.176 5.888 2.208 5.76H1.728C1.696 5.624 1.68 5.464 1.68 5.28C1.68 5.088 1.696 4.928 1.728 4.8H1.008C1.04 4.928 1.056 5.088 1.056 5.28C1.056 5.464 1.04 5.624 1.008 5.76C1.04 5.888 1.056 6.048 1.056 6.24C1.056 6.424 1.04 6.584 1.008 6.72H0.048C0.016 6.584 0 6.424 0 6.24C0 6.048 0.016 5.888 0.048 5.76C0.016 5.624 0 5.464 0 5.28C0 5.088 0.016 4.928 0.048 4.8C0.016 4.664 0 4.504 0 4.32C0 4.128 0.016 3.968 0.048 3.84C0.016 3.704 0 3.544 0 3.36C0 3.168 0.016 3.008 0.048 2.88C0.016 2.744 0 2.584 0 2.4C0 2.208 0.016 2.048 0.048 1.92C0.016 1.784 0 1.624 0 1.44C0 1.248 0.016 1.088 0.048 0.96C0.016 0.824 0 0.664 0 0.48C0 0.288 0.016 0.128 0.048 0H1.008C1.04 0.128 1.056 0.288 1.056 0.48C1.056 0.664 1.04 0.824 1.008 0.96C1.04 1.088 1.056 1.248 1.056 1.44C1.056 1.624 1.04 1.784 1.008 1.92C1.04 2.048 1.056 2.208 1.056 2.4C1.056 2.584 1.04 2.744 1.008 2.88C1.04 3.008 1.056 3.168 1.056 3.36C1.056 3.544 1.04 3.704 1.008 3.84H1.728C1.696 3.704 1.68 3.544 1.68 3.36C1.68 3.168 1.696 3.008 1.728 2.88H2.208C2.176 2.744 2.16 2.584 2.16 2.4C2.16 2.208 2.176 2.048 2.208 1.92H3.648C3.68 2.048 3.696 2.208 3.696 2.4C3.696 2.584 3.68 2.744 3.648 2.88H2.688C2.72 3.008 2.736 3.168 2.736 3.36C2.736 3.544 2.72 3.704 2.688 3.84H2.208C2.24 3.968 2.256 4.128 2.256 4.32C2.256 4.504 2.24 4.664 2.208 4.8H2.688C2.72 4.928 2.736 5.088 2.736 5.28C2.736 5.464 2.72 5.624 2.688 5.76H3.888Z" fill="{accent_color}"/>
<path d="M6.22069 5.28C6.22069 5.464 6.20469 5.624 6.17269 5.76H7.37269C7.40469 5.888 7.42069 6.048 7.42069 6.24C7.42069 6.424 7.40469 6.584 7.37269 6.72H5.45269C5.42069 6.584 5.40469 6.424 5.40469 6.24C5.40469 6.048 5.42069 5.888 5.45269 5.76H4.85269C4.82069 5.624 4.80469 5.464 4.80469 5.28C4.80469 5.088 4.82069 4.928 4.85269 4.8C4.82069 4.664 4.80469 4.504 4.80469 4.32C4.80469 4.128 4.82069 3.968 4.85269 3.84C4.82069 3.704 4.80469 3.544 4.80469 3.36C4.80469 3.168 4.82069 3.008 4.85269 2.88C4.82069 2.744 4.80469 2.584 4.80469 2.4C4.80469 2.208 4.82069 2.048 4.85269 1.92H5.81269C5.84469 2.048 5.86069 2.208 5.86069 2.4C5.86069 2.584 5.84469 2.744 5.81269 2.88C5.84469 3.008 5.86069 3.168 5.86069 3.36C5.86069 3.544 5.84469 3.704 5.81269 3.84C5.84469 3.968 5.86069 4.128 5.86069 4.32C5.86069 4.504 5.84469 4.664 5.81269 4.8H6.17269C6.20469 4.928 6.22069 5.088 6.22069 5.28ZM8.69269 2.88C8.72469 3.008 8.74069 3.168 8.74069 3.36C8.74069 3.544 8.72469 3.704 8.69269 3.84C8.72469 3.968 8.74069 4.128 8.74069 4.32C8.74069 4.504 8.72469 4.664 8.69269 4.8C8.72469 4.928 8.74069 5.088 8.74069 5.28C8.74069 5.464 8.72469 5.624 8.69269 5.76C8.72469 5.888 8.74069 6.048 8.74069 6.24C8.74069 6.424 8.72469 6.584 8.69269 6.72H7.73269C7.70069 6.584 7.68469 6.424 7.68469 6.24C7.68469 6.048 7.70069 5.888 7.73269 5.76H7.37269C7.34069 5.624 7.32469 5.464 7.32469 5.28C7.32469 5.088 7.34069 4.928 7.37269 4.8H7.73269C7.70069 4.664 7.68469 4.504 7.68469 4.32C7.68469 4.128 7.70069 3.968 7.73269 3.84C7.70069 3.704 7.68469 3.544 7.68469 3.36C7.68469 3.168 7.70069 3.008 7.73269 2.88C7.70069 2.744 7.68469 2.584 7.68469 2.4C7.68469 2.208 7.70069 2.048 7.73269 1.92H8.69269C8.72469 2.048 8.74069 2.208 8.74069 2.4C8.74069 2.584 8.72469 2.744 8.69269 2.88Z" fill="{accent_color}"/>
<path d="M13.4974 2.88C13.5294 3.008 13.5454 3.168 13.5454 3.36C13.5454 3.544 13.5294 3.704 13.4974 3.84H12.5374C12.5054 3.704 12.4894 3.544 12.4894 3.36C12.4894 3.168 12.5054 3.008 12.5374 2.88H11.6974C11.7294 3.008 11.7454 3.168 11.7454 3.36C11.7454 3.544 11.7294 3.704 11.6974 3.84H11.3374C11.3694 3.968 11.3854 4.128 11.3854 4.32C11.3854 4.504 11.3694 4.664 11.3374 4.8C11.3694 4.928 11.3854 5.088 11.3854 5.28C11.3854 5.464 11.3694 5.624 11.3374 5.76H12.0574C12.0894 5.888 12.1054 6.048 12.1054 6.24C12.1054 6.424 12.0894 6.584 12.0574 6.72H9.65738C9.62538 6.584 9.60938 6.424 9.60938 6.24C9.60938 6.048 9.62538 5.888 9.65738 5.76H10.3774C10.3454 5.624 10.3294 5.464 10.3294 5.28C10.3294 5.088 10.3454 4.928 10.3774 4.8C10.3454 4.664 10.3294 4.504 10.3294 4.32C10.3294 4.128 10.3454 3.968 10.3774 3.84C10.3454 3.704 10.3294 3.544 10.3294 3.36C10.3294 3.168 10.3454 3.008 10.3774 2.88H9.65738C9.62538 2.744 9.60938 2.584 9.60938 2.4C9.60938 2.208 9.62538 2.048 9.65738 1.92H10.8574C10.8894 2.048 10.9054 2.208 10.9054 2.4C10.9054 2.584 10.8894 2.744 10.8574 2.88H11.3374C11.3054 2.744 11.2894 2.584 11.2894 2.4C11.2894 2.208 11.3054 2.048 11.3374 1.92H13.1374C13.1694 2.048 13.1854 2.208 13.1854 2.4C13.1854 2.584 13.1694 2.744 13.1374 2.88H13.4974Z" fill="{accent_color}"/>
<path d="M17.6301 3.36C17.6301 3.544 17.6141 3.704 17.5821 3.84H16.6221C16.5901 3.704 16.5741 3.544 16.5741 3.36C16.5741 3.168 16.5901 3.008 16.6221 2.88H14.7021C14.6701 2.744 14.6541 2.584 14.6541 2.4C14.6541 2.208 14.6701 2.048 14.7021 1.92H18.0621C18.0941 2.048 18.1101 2.208 18.1101 2.4C18.1101 2.584 18.0941 2.744 18.0621 2.88H17.5821C17.6141 3.008 17.6301 3.168 17.6301 3.36ZM16.6701 4.32C16.6701 4.504 16.6541 4.664 16.6221 4.8H15.6621C15.6301 4.664 15.6141 4.504 15.6141 4.32C15.6141 4.128 15.6301 3.968 15.6621 3.84H16.6221C16.6541 3.968 16.6701 4.128 16.6701 4.32ZM18.0621 5.76C18.0941 5.888 18.1101 6.048 18.1101 6.24C18.1101 6.424 18.0941 6.584 18.0621 6.72H14.7021C14.6701 6.584 14.6541 6.424 14.6541 6.24C14.6541 6.048 14.6701 5.888 14.7021 5.76C14.6701 5.624 14.6541 5.464 14.6541 5.28C14.6541 5.088 14.6701 4.928 14.7021 4.8H15.6621C15.6941 4.928 15.7101 5.088 15.7101 5.28C15.7101 5.464 15.6941 5.624 15.6621 5.76H18.0621Z" fill="{accent_color}"/>
</svg>
